# xmcd
#
# Track frame offsets:
#        150
#        16649
#        29468
#        44938
#        60464
#        72966
#        85831
#        103944
#        123158
#        141165
#        156514
#        194007
#
# Disc length: 3189 seconds
#
# Revision: 0
# Processed by: cddbd v1.5.1PL0 Copyright (c) Steve Scherf et al.
# Submitted via: ExactAudioCopy v0.95a3
#
DISCID=ac0c730c
DTITLE=Not By Choice - Maybe One Day (Japanese Edition)
DYEAR=2003
DGENRE=
TTITLE0=Maybe One Day
TTITLE1=Standing All Alone
TTITLE2=Now That You Are Leaving
TTITLE3=Wish Upon A Star
TTITLE4=Make My Day
TTITLE5=This Is The End
TTITLE6=Intoxicated
TTITLE7=Miss You
TTITLE8=Way It Used To Be, The
TTITLE9=Same As You
TTITLE10=This Old Place
TTITLE11=movie
EXTD=
EXTT0=
EXTT1=
EXTT2=
EXTT3=
EXTT4=
EXTT5=
EXTT6=
EXTT7=
EXTT8=
EXTT9=
EXTT10=
EXTT11=
PLAYORDER=
